<svg width="129" height="138" viewBox="0 0 129 138" fill="none" xmlns="http://www.w3.org/2000/svg">
<g clip-path="url(#clip0_77_430)">
<path d="M63.6925 138C60.3438 136.324 57.0131 134.62 53.6465 132.984C36.4295 124.629 19.2054 116.277 1.96325 107.969C0.56708 107.295 0 106.434 0 104.855C0.0394803 80.9421 0.0394803 57.0287 0 33.1154C0 31.5589 0.498887 30.6545 1.91659 29.9699C22.2956 20.1372 42.6566 10.2685 63.0069 0.381754C64.0837 -0.140686 64.9881 -0.115465 66.0469 0.39977C86.4331 10.3009 106.826 20.1877 127.231 30.0492C128.483 30.6545 128.993 31.476 128.993 32.8776C128.964 56.881 128.961 80.8845 129 104.888C129 106.484 128.379 107.331 127.008 107.994C106.923 117.697 86.8566 127.432 66.7863 137.164C66.2766 137.413 65.7957 137.722 65.3004 138.003H63.6889L63.6925 138ZM124.948 35.5438C124.628 35.6555 124.46 35.6987 124.309 35.7708C118.595 38.5379 112.896 41.3267 107.164 44.0542C106.424 44.4073 106.385 44.8937 106.385 45.5494C106.396 53.0546 106.363 60.5597 106.414 68.0684C106.424 69.5241 105.89 70.4104 104.598 71.0265C99.9533 73.2316 95.3377 75.4907 90.7077 77.7246C90.4278 77.8615 90.1442 78.0128 89.8428 78.0849C88.2492 78.4668 87.2442 77.4688 87.2406 75.4583C87.2299 67.9964 87.2263 60.5381 87.2478 53.0762C87.2478 52.2871 87.1078 51.7791 86.3039 51.39C66.6965 41.9176 47.1107 32.4056 27.4998 22.9368C27.0655 22.7278 26.3656 22.7422 25.9206 22.944C23.7205 23.9348 21.567 25.0229 19.392 26.075C15.2609 28.0783 11.1298 30.0816 6.80496 32.1786C7.36845 32.4704 7.75249 32.6758 8.1437 32.8668C18.1143 37.7092 28.0884 42.5481 38.059 47.387C42.0788 49.3399 46.1058 51.2747 50.1148 53.2528C51.3136 53.8437 51.7263 54.9858 51.2526 56.0379C50.786 57.072 49.6231 57.4359 48.3777 56.9278C48.13 56.827 47.8968 56.6937 47.6527 56.5784C36.024 50.9432 24.3988 45.3044 12.7701 39.6693C9.92391 38.2893 7.07415 36.9202 4.04852 35.4609V36.8229C4.04852 58.9347 4.05929 81.0502 4.01981 103.162C4.01981 104.214 4.43974 104.621 5.28318 105.032C22.7478 113.474 40.2017 121.941 57.6556 130.401C59.1738 131.136 60.6991 131.853 62.4219 132.675C62.4219 131.972 62.4219 131.45 62.4219 130.927C62.4219 109.983 62.4219 89.0381 62.4219 68.0937C62.4219 66.9695 62.5116 65.8346 62.3824 64.7284C62.325 64.2276 61.941 63.5863 61.5139 63.3413C60.1608 62.563 58.7036 61.9721 57.311 61.2515C56.0799 60.6174 55.6887 59.5473 56.2091 58.4664C56.7188 57.4071 57.8278 57.0431 59.0733 57.5944C60.1751 58.0808 61.3129 58.5384 62.3214 59.187C63.8575 60.1742 65.1819 59.9796 66.7576 59.1545C70.5584 57.1656 74.4598 55.3641 78.3289 53.5122C79.8112 52.8024 81.0386 53.2419 81.4873 54.5787C81.8534 55.6704 81.3904 56.5459 80.0193 57.2161C76.0031 59.1797 71.9977 61.1614 67.9455 63.0494C66.9119 63.5286 66.535 64.0691 66.535 65.2473C66.5781 87.179 66.5637 109.114 66.5637 131.046V132.631C67.1272 132.394 67.5364 132.242 67.9276 132.051C86.5587 123.026 105.183 113.986 123.828 104.985C124.747 104.542 124.966 104.005 124.962 103.032C124.93 81.0106 124.937 58.9852 124.937 36.9634C124.937 36.5599 124.937 36.1563 124.937 35.5474L124.948 35.5438ZM47.9291 12.2466C48.5823 12.5961 48.9986 12.8375 49.4293 13.0464C67.7984 21.9531 86.1747 30.8527 104.537 39.7774C105.29 40.1449 105.9 40.1701 106.661 39.799C111.474 37.4318 116.309 35.1078 121.133 32.7623C121.441 32.6109 121.725 32.4056 122.145 32.1497C117.188 29.7429 112.372 27.3973 107.548 25.0626C93.5503 18.2817 79.5527 11.5007 65.5444 4.74143C65.0814 4.51804 64.378 4.32348 63.976 4.51444C58.6856 7.01135 53.4312 9.58031 47.9291 12.2466ZM100.879 42.5769C100.165 42.2022 99.7451 41.968 99.3108 41.7591C92.2726 38.347 85.2307 34.9385 78.1889 31.5264C66.8868 26.0462 55.5846 20.5624 44.2717 15.1002C43.8267 14.884 43.1627 14.6786 42.7823 14.8552C39.0783 16.5918 35.4102 18.415 31.5411 20.3066C32.4456 20.7533 33.1562 21.11 33.8741 21.4559C51.974 30.2221 70.0739 38.9919 88.181 47.7401C88.6117 47.9491 89.2577 48.14 89.631 47.9671C93.3134 46.2556 96.96 44.4685 100.879 42.5769ZM91.3286 72.8713C94.9824 71.1022 98.4064 69.4736 101.784 67.7622C102.107 67.6001 102.301 66.8867 102.304 66.4255C102.336 60.1814 102.329 53.9337 102.326 47.6897C102.326 47.3474 102.29 47.0051 102.261 46.4646C99.6303 47.7329 97.2291 49.1489 94.6522 50.0605C91.8957 51.0369 91.1061 52.6114 91.2497 55.5083C91.526 61.1974 91.3322 66.9119 91.3322 72.8713H91.3286Z" fill="#66AAA0"/>
<path d="M30.3029 92.4504C30.2706 94.5366 28.677 95.3616 27.0225 94.5654C22.7909 92.5369 18.5737 90.4723 14.3493 88.4258C12.8993 87.7232 11.4421 87.0386 10.0065 86.3108C8.75745 85.6767 8.32676 84.6354 8.81488 83.5689C9.3353 82.4339 10.4623 82.0376 11.7651 82.6609C17.4898 85.4029 23.2072 88.1556 28.8924 90.9804C29.56 91.3118 29.9978 92.1153 30.3029 92.4468V92.4504Z" fill="#66AAA0"/>
<path d="M21.7931 97.8802C21.8326 99.8042 20.4831 100.896 19.1802 100.305C15.968 98.8494 12.7988 97.3001 9.65472 95.7112C8.60311 95.1779 8.35187 94.0322 8.86153 93.0521C9.36759 92.0721 10.4048 91.647 11.4672 92.1442C14.5395 93.5782 17.6046 95.0374 20.6231 96.5831C21.2081 96.8822 21.5742 97.6244 21.7931 97.8802Z" fill="#66AAA0"/>
</g>
<defs>
<clipPath id="clip0_77_430">
<rect width="129" height="138" fill="white"/>
</clipPath>
</defs>
</svg>
