<svg width="135" height="135" viewBox="0 0 135 135" fill="none" xmlns="http://www.w3.org/2000/svg">
<g clip-path="url(#clip0_79_434)">
<path d="M111.081 0.997314C112.347 1.27332 113.624 1.50391 114.869 1.8463C115.526 2.02797 116.212 2.2935 116.743 2.70576C118.03 3.70847 118.251 5.58461 117.31 6.94019C117.016 7.36643 116.635 7.74026 116.268 8.1071C113.526 10.8532 110.794 13.6133 108.017 16.3209C107.37 16.9533 107.08 17.5926 107.132 18.494C107.202 19.6679 107.101 20.8488 107.171 22.0227C107.195 22.449 107.398 22.9521 107.692 23.263C109.042 24.685 110.43 26.0755 111.857 27.4206C112.165 27.7106 112.679 27.8922 113.109 27.9132C114.372 27.9761 115.642 27.8957 116.904 27.9516C117.628 27.9831 118.121 27.7245 118.618 27.2249C121.343 24.4614 124.099 21.7293 126.844 18.9867C127.121 18.7106 127.39 18.4242 127.684 18.1621C129.639 16.4327 132.36 17.1315 133.077 19.64C133.539 21.2611 133.913 22.9451 134.042 24.6221C135.106 38.4049 125.722 49.6164 113.802 52.2437C109.192 53.2604 104.624 53.0752 100.127 51.6567C99.462 51.4471 99.0283 51.4576 98.5106 51.9782C94.0897 56.4362 89.6373 60.8663 85.199 65.3068C85.0765 65.4291 84.9786 65.5724 84.7688 65.8309C85.8005 66.5262 86.7798 67.2424 87.8116 67.8678C89.2631 68.7482 90.7601 69.5587 92.2255 70.4112C94.8032 71.91 97.1186 73.7477 99.2241 75.8545C109.682 86.3043 120.136 96.7541 130.604 107.193C132.944 109.527 134.207 112.28 134.105 115.61C134.025 118.29 133.101 120.665 131.251 122.58C128.159 125.777 125.064 128.981 121.804 131.999C117.373 136.108 110.965 135.877 106.604 131.566C100.742 125.77 94.9326 119.925 89.1022 114.101C84.5974 109.601 80.117 105.08 75.5807 100.611C72.8596 97.928 70.5792 94.9304 68.7115 91.6008C67.7741 89.9308 66.7529 88.3097 65.7491 86.6816C65.5252 86.3183 65.2209 86.0073 64.9132 85.616C64.5354 85.9724 64.2171 86.2589 63.9129 86.5593C59.7473 90.7169 55.5957 94.8919 51.4021 99.0251C50.7411 99.6784 50.5277 100.209 50.8145 101.167C55.2039 115.76 46.7189 130.556 31.9033 134.2C27.5803 135.262 23.2608 135.137 18.9798 133.949C16.1713 133.17 15.4018 130.361 17.4374 128.282C20.3369 125.323 23.2783 122.405 26.2302 119.498C26.8003 118.939 27.1046 118.387 27.0522 117.563C26.9787 116.434 27.0067 115.295 27.0522 114.163C27.0801 113.465 26.9018 112.934 26.3736 112.434C25.0411 111.176 23.754 109.873 22.4809 108.556C22.0542 108.112 21.6065 107.92 20.9909 107.938C19.466 107.983 17.9375 107.973 16.4126 107.983C15.3144 109.035 14.1986 110.069 13.1179 111.138C11.0089 113.224 8.94533 115.351 6.80133 117.402C6.25571 117.923 5.54221 118.387 4.82521 118.583C3.28629 119.006 1.64244 118.014 1.14579 116.406C0.789035 115.25 0.607162 114.038 0.337851 112.853C0.264402 112.525 0.159476 112.2 0.0720367 111.875C0.0720367 109.957 0.0720367 108.039 0.0720367 106.121C0.250412 105.324 0.418294 104.528 0.61066 103.735C3.14638 93.3407 9.58188 86.6921 19.8752 83.7678C20.2704 83.656 20.7496 83.6595 21.1518 83.7608C21.9807 83.974 22.5473 84.795 22.5508 85.616C22.5543 86.4266 22.0297 87.1952 21.1728 87.4957C20.148 87.859 19.0672 88.0791 18.0739 88.5054C9.36153 92.2577 4.72028 98.9203 4.02077 108.336C3.88437 110.188 4.14668 112.022 4.61885 113.95C5.02807 113.563 5.34634 113.273 5.65063 112.972C8.30527 110.324 10.9739 107.686 13.6006 105.013C14.2966 104.308 15.0416 103.993 16.0349 104.018C18.0844 104.067 20.1375 104.06 22.1871 104.007C23.1384 103.983 23.8449 104.308 24.4989 104.978C26.2932 106.82 28.1119 108.643 29.9621 110.432C30.6721 111.117 31.0114 111.851 30.9834 112.853C30.9239 114.855 30.9204 116.864 30.9799 118.866C31.0114 119.907 30.6826 120.686 29.9376 121.413C27.255 124.033 24.6179 126.703 21.9702 129.354C21.6694 129.655 21.3896 129.976 21.0678 130.322C23.8099 131.028 26.6569 131.161 29.4445 130.675C41.8538 128.512 49.4645 117.245 47.7786 105.817C46.5965 97.8232 42.221 92.1878 34.9112 88.7919C32.9595 87.887 30.875 87.4538 28.7729 87.0764C27.4369 86.8354 26.8493 85.9794 27.0347 84.7775C27.206 83.6735 28.2308 82.9608 29.476 83.1949C30.9694 83.4744 32.4769 83.7609 33.9213 84.215C34.7643 84.4806 35.2574 84.3408 35.859 83.7294C38.9753 80.5571 42.1406 77.4302 45.2849 74.2858C45.5262 74.0447 45.7431 73.7792 46.0054 73.4892C45.7571 73.1363 45.5297 72.8254 45.3129 72.5075C44.5609 71.4034 44.1272 70.1876 44.0782 68.846C44.0013 66.7742 44.7183 65.0099 46.1733 63.5425C47.4849 62.2184 48.8069 60.8977 50.3354 59.3675C49.8247 58.9762 49.3665 58.7002 49.0028 58.3368C33.3792 42.7582 17.7662 27.1655 2.16707 11.5624C1.4081 10.8043 0.76805 9.92735 0.0755343 9.10282C0.0755343 8.40407 0.0755343 7.70882 0.0755343 7.01006C1.83131 4.75659 3.8389 2.75467 6.09832 0.997314C6.79433 0.997314 7.49384 0.997314 8.18986 0.997314C8.76345 1.44451 9.39301 1.83582 9.90715 2.3459C13.4712 5.8746 17.0107 9.42425 20.5572 12.9704C20.774 13.187 20.9979 13.4001 21.1693 13.6482C21.7324 14.4657 21.6379 15.458 20.9489 16.1532C20.2949 16.817 19.2246 16.9323 18.4377 16.3768C18.0844 16.1288 17.7836 15.8038 17.4759 15.4964C14.356 12.387 11.2432 9.27402 8.1234 6.16458C7.82611 5.86761 7.50084 5.60558 7.30847 5.43438C6.30817 6.41613 5.39531 7.31752 4.72028 7.98133C20.8685 24.112 37.0482 40.2741 53.1544 56.3663C53.9099 55.6152 54.7982 54.7313 55.7461 53.7914C55.4837 53.5084 55.2005 53.1835 54.8962 52.8831C44.9037 42.8979 34.9077 32.9163 24.9151 22.9311C24.5759 22.5922 24.2156 22.2673 23.9288 21.8865C23.2958 21.0515 23.3867 19.9684 24.1002 19.2766C24.7927 18.6058 25.9364 18.5464 26.7339 19.1753C27.0731 19.4443 27.3634 19.7762 27.6747 20.0837C37.6707 30.0653 47.6667 40.0505 57.6627 50.0322C57.988 50.3571 58.3412 50.661 58.7505 51.0418C60.0516 49.7212 61.2582 48.4669 62.4963 47.2441C65.3468 44.4386 68.8514 44.1661 72.0761 46.479C72.2475 46.6013 72.4224 46.7236 72.6427 46.8808C72.961 46.5943 73.2548 46.3462 73.5241 46.0772C76.6125 42.9992 79.6763 39.8968 82.7961 36.8502C83.4712 36.1899 83.667 35.6414 83.3592 34.7016C82.0232 30.6034 81.8378 26.3899 82.6457 22.1869C84.6708 11.6393 92.6592 3.64907 103.183 1.49692C103.904 1.34669 104.61 1.16152 105.32 0.997314C107.241 0.997314 109.161 0.997314 111.081 0.997314ZM127.215 109.587C126.995 109.901 126.83 110.156 126.648 110.397C124.588 113.14 120.657 113.639 118.097 111.362C116.31 109.768 114.645 108.032 112.994 106.296C111.976 105.226 112.291 103.675 113.561 103.134C114.452 102.756 115.257 102.98 115.946 103.668C117.237 104.968 118.534 106.257 119.832 107.55C120.108 107.826 120.381 108.116 120.689 108.357C121.472 108.965 122.514 108.926 123.203 108.301C123.969 107.602 124.064 106.593 123.431 105.712C123.252 105.468 123.032 105.251 122.815 105.038C115.351 97.5821 107.888 90.1265 100.42 82.6743C100.144 82.3983 99.8677 82.1048 99.5389 81.8987C98.7485 81.4061 97.7831 81.5563 97.1536 82.2201C96.5345 82.8699 96.4366 83.8657 96.9717 84.6203C97.2445 85.0081 97.6013 85.3435 97.937 85.6789C101.637 89.3788 105.338 93.0752 109.042 96.7716C109.318 97.0476 109.612 97.3166 109.864 97.6136C110.651 98.5464 110.63 99.6609 109.825 100.423C109.091 101.121 107.94 101.125 107.094 100.412C106.828 100.188 106.59 99.9299 106.345 99.6819C102.55 95.8912 98.759 92.1039 94.9641 88.3132C94.7473 88.0966 94.5269 87.887 94.3206 87.6634C91.7534 84.9173 92.1661 80.8575 95.2369 78.66C95.4328 78.5202 95.6287 78.384 95.9225 78.1813C95.2264 77.5559 94.6668 76.9271 93.9883 76.4764C91.7849 75.002 89.5919 73.4927 87.294 72.1756C84.0168 70.2994 81.0264 68.0844 78.3752 65.3977C76.3536 63.3503 74.3111 61.324 72.272 59.2941C71.9712 58.9936 71.6494 58.7141 71.4186 58.5045C66.8053 63.1023 62.255 67.6407 57.6452 72.2315C57.8726 72.476 58.1524 72.7975 58.4532 73.1014C60.3314 74.9845 62.1886 76.8886 64.1017 78.7333C67.1061 81.6332 69.5894 84.9068 71.597 88.5648C72.5378 90.2767 73.5906 91.9362 74.6888 93.5538C75.4548 94.6858 76.2977 95.7864 77.4309 96.6528C78.3997 94.9968 79.7113 93.9137 81.544 93.5783C83.667 93.1905 85.5032 93.7705 87.0387 95.3042C94.7473 103.008 102.459 110.712 110.168 118.412C110.259 118.503 110.353 118.597 110.441 118.695C112.812 121.336 112.417 125.33 109.566 127.443C109.308 127.635 109.042 127.814 108.776 128.002C111.868 131.681 116.292 131.915 119.59 128.652C122.413 125.864 125.228 123.069 128.009 120.239C131.181 117.011 130.856 112.469 127.219 109.573L127.215 109.587ZM113.218 5.56365C103.918 3.26825 93.4007 7.63894 88.6196 16.9009C83.9678 25.9113 86.0733 36.99 93.656 43.5582C101.34 50.2138 112.55 50.7134 120.877 44.823C129.244 38.9045 131.545 28.322 129.405 21.8935C129.065 22.2883 128.806 22.6411 128.499 22.9451C125.851 25.6003 123.186 28.2346 120.556 30.9038C119.898 31.5677 119.192 31.8891 118.24 31.8681C116.103 31.8192 113.966 31.8332 111.829 31.8681C111.028 31.8821 110.409 31.6236 109.853 31.0576C107.926 29.1011 105.981 27.162 104.026 25.237C103.46 24.678 103.204 24.0596 103.218 23.263C103.253 21.0864 103.257 18.9063 103.222 16.7297C103.208 15.8772 103.505 15.2344 104.1 14.6474C106.212 12.5686 108.297 10.4619 110.395 8.36914C111.287 7.47823 112.183 6.59431 113.221 5.56714L113.218 5.56365ZM38.9124 86.3532C43.0814 88.7849 46.2747 91.9782 48.5201 95.8073C53.0355 91.2969 57.5088 86.8249 61.8563 82.4821C59.408 80.033 56.8268 77.4546 54.3785 75.0055C53.1229 75.1802 51.8918 75.4457 50.6536 75.4911C49.9261 75.5191 49.447 75.7427 48.9608 76.2353C45.8935 79.3273 42.8016 82.3983 39.7203 85.4798C39.479 85.7208 39.2586 85.9829 38.9159 86.3602L38.9124 86.3532ZM95.181 49.5046C91.1378 47.1219 87.934 43.9321 85.5522 39.8688C85.3493 39.9981 85.1885 40.068 85.073 40.1833C81.7399 43.5023 78.4032 46.8179 75.098 50.1649C74.8392 50.4304 74.6853 50.93 74.6993 51.3109C74.7518 52.6874 74.5349 53.9906 74.0592 54.9479C76.7524 57.645 79.3475 60.2479 81.8658 62.7704C86.1853 58.4661 90.6202 54.0465 95.1775 49.5046H95.181ZM51.0349 71.6131C52.1681 71.5502 52.955 70.9947 53.6895 70.261C58.9148 65.0204 64.1542 59.7972 69.3865 54.567C69.6034 54.3504 69.8237 54.1408 70.0161 53.9067C71.0479 52.628 70.9954 51.0279 69.8972 49.8749C68.8164 48.7395 67.1656 48.5927 65.8715 49.543C65.5217 49.7981 65.2174 50.116 64.9097 50.4235C59.7648 55.5593 54.6234 60.6951 49.4819 65.8344C49.1462 66.1698 48.7999 66.5157 48.5446 66.914C47.9046 67.9062 47.8521 68.9543 48.4327 69.999C49.0098 71.0366 49.9401 71.5152 51.0349 71.6166V71.6131ZM107.979 122.657C108.066 121.899 107.517 121.382 106.989 120.854C99.5004 113.37 92.0087 105.89 84.5169 98.4102C84.3001 98.1936 84.0832 97.9769 83.8349 97.8022C83.0864 97.2782 82.0791 97.3411 81.4251 97.9315C80.7011 98.5849 80.5612 99.5841 81.1173 100.412C81.3342 100.734 81.628 101.006 81.9043 101.282C89.2981 108.675 96.6954 116.064 104.096 123.453C104.404 123.761 104.701 124.096 105.065 124.323C106.349 125.123 107.947 124.243 107.982 122.657H107.979Z" fill="#4F46E5"/>
</g>
<defs>
<clipPath id="clip0_79_434">
<rect width="135" height="135" fill="white"/>
</clipPath>
</defs>
</svg>
