<svg width="112" height="107" viewBox="0 0 112 107" fill="none" xmlns="http://www.w3.org/2000/svg">
<path d="M126.947 80.9572L126.948 80.9597C126.967 81.0313 126.984 81.1143 127.009 81.2454C127.031 81.3617 127.063 81.531 127.105 81.7013C127.117 81.7487 127.13 81.7984 127.144 81.8503C127.092 81.8988 127.043 81.9462 126.997 81.9915C126.867 82.121 126.747 82.2532 126.657 82.3525C126.559 82.4605 126.489 82.5361 126.422 82.6027C126.422 82.6033 126.421 82.6038 126.421 82.6043L123.769 85.2195C109.598 99.1966 95.4251 113.175 81.2876 127.189L81.2869 127.19C80.9767 127.498 80.8271 127.545 80.775 127.558C80.7146 127.573 80.5566 127.595 80.1321 127.477L80.1311 127.476C59.7056 121.808 39.2737 116.171 18.8265 110.578C18.4117 110.465 18.2903 110.353 18.2429 110.301C18.181 110.233 18.0735 110.074 17.9547 109.612L17.9544 109.611C12.6431 89.0032 7.2969 68.4049 1.92162 47.815L1.92105 47.8128C1.82525 47.4481 1.85542 47.3275 1.86291 47.3004C1.87068 47.2723 1.90781 47.1522 2.17841 46.8856C17.4083 31.8964 32.615 16.8843 47.7943 1.84549L47.7952 1.84461C48.0526 1.58913 48.1678 1.56362 48.1884 1.55906L48.1892 1.55889C48.2262 1.55062 48.3565 1.53071 48.7368 1.6354C69.203 7.3094 89.679 12.9588 110.163 18.5696C110.588 18.6868 110.713 18.7871 110.759 18.8318C110.798 18.8703 110.902 18.988 111.01 19.4093C115.81 38.0788 120.655 56.734 125.5 75.3866C125.983 77.2434 126.465 79.1003 126.947 80.9572ZM51.7882 101.331L51.7885 101.331C71.9939 108.321 95.1421 97.8356 102.647 75.9653L102.647 75.9651C109.862 54.9333 98.9842 31.5928 77.3757 24.542C56.4076 17.6963 33.7309 29.461 26.9955 50.798C20.3524 71.1652 30.6049 93.9982 51.7882 101.331Z" fill="#22C55E" stroke="#15803D" stroke-width="3"/>
</svg>
