<svg width="60" height="59" viewBox="0 0 60 59" fill="none" xmlns="http://www.w3.org/2000/svg">
<g clip-path="url(#clip0_1_86)">
<path d="M41.6548 27.5122C44.351 27.5122 46.957 27.5105 49.5629 27.5122C50.8675 27.5122 51.4111 27.8986 51.831 29.1259C52.7693 31.8736 53.6926 34.6263 54.651 37.3674C54.7463 37.6422 54.9989 37.9269 55.2548 38.0701C56.1062 38.5497 56.9943 38.9661 57.8657 39.409C59.2339 40.1034 59.9749 41.2075 59.9849 42.7429C60.0017 45.5256 60.01 48.31 59.9816 51.0927C59.9649 52.6431 58.9529 53.5923 57.4008 53.6073C56.715 53.6139 56.0292 53.6073 55.3167 53.6073C55.0758 55.0894 54.4469 56.3267 53.2226 57.4408C53.7361 57.4408 54.0957 57.4408 54.4536 57.4408C55.5391 57.4408 56.623 57.4474 57.7085 57.4391C58.1852 57.4358 58.5616 57.5706 58.5666 58.1102C58.5716 58.6431 58.2019 58.808 57.7252 58.8063C57.5998 58.8063 57.4743 58.8063 57.3489 58.8063C39.1157 58.8063 20.8826 58.8063 2.64775 58.8063C2.50223 58.8063 2.35504 58.808 2.20952 58.8063C1.75457 58.7946 1.42172 58.6098 1.42339 58.1169C1.42507 57.6223 1.74955 57.4424 2.21454 57.4424C3.69647 57.4458 5.17674 57.4424 6.65867 57.4424C6.88615 57.4424 7.11195 57.4424 7.50669 57.4424C6.3576 56.3417 5.67016 55.1227 5.46108 53.6089C4.37054 53.6089 3.31345 53.6123 2.25468 53.6089C0.786127 53.6039 0.0033435 52.8462 0.0033435 51.3891C-1.7253e-06 39.5706 -0.00334695 27.752 0.00501612 15.9335C0.00501612 13.9385 1.26282 12.7028 3.25156 12.7028C14.9766 12.6995 26.6999 12.6995 38.425 12.7028C40.4137 12.7028 41.6498 13.9485 41.6514 15.9451C41.6564 19.5588 41.6514 23.1741 41.6514 26.7878C41.6514 27.0126 41.6514 27.2374 41.6514 27.5139L41.6548 27.5122ZM13.6753 14.0717H12.9209C9.79148 14.0717 6.66035 14.0717 3.53089 14.0717C1.93354 14.0717 1.37154 14.6196 1.37154 16.1916C1.37154 25.5405 1.37154 34.8894 1.37154 44.2384C1.37154 44.4598 1.39161 44.6813 1.40332 44.9078H40.2481C40.2615 44.7379 40.2782 44.6147 40.2782 44.4915C40.2782 34.956 40.2816 25.4206 40.2782 15.8852C40.2782 14.7161 39.6292 14.0783 38.4534 14.0767C35.1349 14.07 31.8181 14.0733 28.4997 14.0767C28.3408 14.0767 28.1835 14.105 27.9962 14.1233C27.9962 16.7178 27.9878 19.2724 28.0012 21.8253C28.0062 22.5996 27.7737 23.2208 27.0445 23.5655C26.3186 23.9102 25.683 23.7104 25.0792 23.2208C23.8347 22.2116 22.5602 21.2357 21.3191 20.2216C20.9662 19.9335 20.722 19.9135 20.3557 20.2149C19.1364 21.2224 17.8769 22.1833 16.6492 23.1808C16.037 23.6787 15.3914 23.9219 14.632 23.5721C13.8643 23.2174 13.6636 22.563 13.6686 21.7736C13.6837 19.4472 13.6736 17.1208 13.6736 14.7928C13.6736 14.5696 13.6736 14.3481 13.6736 14.0733L13.6753 14.0717ZM43.5967 52.2217C44.1888 48.8445 46.7044 47.3308 48.8119 47.1143C50.1148 46.9811 51.3476 47.2275 52.4732 47.912C54.099 48.9028 54.9972 50.3866 55.3267 52.2367C56.1128 52.2367 56.8404 52.2467 57.5697 52.2334C58.0614 52.2251 58.4946 51.967 58.5298 51.5007C58.605 50.5032 58.5532 49.4957 58.5532 48.4499C58.0782 48.4499 57.6416 48.4615 57.2051 48.4482C56.2567 48.4182 55.7365 47.9153 55.7131 46.9694C55.6897 46.0352 55.688 45.0993 55.7131 44.1651C55.7382 43.2209 56.2617 42.7413 57.2268 42.7263C57.6734 42.7196 58.12 42.7263 58.5883 42.7263C58.5749 41.7388 58.1518 41.1193 57.3941 40.7213C56.3989 40.1984 55.4053 39.6738 54.3917 39.1892C53.8816 38.9461 53.5922 38.593 53.4149 38.0601C52.4716 35.2258 51.4897 32.4048 50.5481 29.5705C50.3741 29.0459 50.0948 28.8578 49.5495 28.8628C47.2547 28.8844 44.9599 28.8711 42.665 28.8728C41.7401 28.8728 41.6598 28.9544 41.6598 29.8653C41.6598 37.0943 41.6598 44.3216 41.6598 51.5506V52.2201H43.6017L43.5967 52.2217ZM5.41927 52.2401C6.42953 48.8878 8.28278 47.2009 10.974 47.0927C12.2653 47.041 13.4545 47.3308 14.5333 48.0402C16.0437 49.0327 16.8733 50.4665 17.1711 52.2068H40.2448V46.3799H1.3866C1.3866 48.1634 1.36652 49.9236 1.41503 51.6822C1.42005 51.8737 1.80642 52.2034 2.02888 52.2151C3.14953 52.27 4.2752 52.2401 5.41927 52.2401ZM43.605 53.6089H42.8156C39.0622 53.6089 35.3089 53.6089 31.5555 53.6089C26.9893 53.6089 22.4231 53.6156 17.8568 53.6006C17.3785 53.6006 17.1292 53.6672 17.0306 54.2184C16.8365 55.3025 16.2862 56.2334 15.5101 57.0261C15.4048 57.1343 15.3145 57.2592 15.1873 57.4124H45.6406C44.4898 56.3517 43.8275 55.141 43.605 53.6106V53.6089ZM11.3069 48.4565C8.813 48.4599 6.82426 50.4332 6.81423 52.9145C6.80419 55.4091 8.83307 57.4441 11.3236 57.4374C13.784 57.4308 15.8213 55.4108 15.8346 52.9611C15.848 50.4782 13.8124 48.4532 11.3069 48.4565ZM53.9568 52.8479C53.895 50.3366 51.8661 48.4116 49.3321 48.4599C46.8717 48.5082 44.8612 50.5998 44.9398 53.0294C45.0201 55.5357 47.0991 57.5107 49.5779 57.4358C52.0501 57.3608 54.0187 55.2992 53.9585 52.8479H53.9568Z" fill="#2563EB"/>
<path d="M16.2511 3.43548C19.506 3.43548 22.7609 3.42216 26.0142 3.44048C28.2103 3.45214 29.7709 4.80435 30.0736 6.90261C30.3747 8.98089 28.7104 11.0408 26.5879 11.2207C24.2997 11.4139 22.2959 9.72194 22.2391 7.55207C22.2257 7.07414 22.3679 6.70444 22.9048 6.69112C23.44 6.6778 23.5788 7.04416 23.6223 7.51544C23.7444 8.86932 24.7647 9.83019 26.0827 9.87515C27.3824 9.91845 28.4495 9.04917 28.692 7.74691C28.9161 6.54791 28.1601 5.29394 26.9492 4.93258C26.5778 4.82267 26.168 4.80935 25.7766 4.80935C19.3304 4.80269 12.8841 4.80435 6.43789 4.80269C6.20874 4.80269 5.92272 4.86264 5.7655 4.75273C5.52966 4.5862 5.25368 4.29977 5.2403 4.05331C5.23026 3.8618 5.57148 3.60534 5.80899 3.46546C5.96621 3.37387 6.21543 3.43382 6.42451 3.43382C9.69949 3.43382 12.9745 3.43382 16.2511 3.43382V3.43548Z" fill="#2563EB"/>
<path d="M47.0841 5.33392C49.9844 5.33392 52.8864 5.28563 55.785 5.34724C59.0132 5.41552 60.9986 8.94093 59.4564 11.7703C58.5231 13.4838 56.6146 14.3648 54.6961 13.9668C52.7693 13.5671 51.3676 11.9718 51.2071 9.99339C51.1602 9.4172 51.3961 9.03585 51.8377 9.03086C52.3679 9.02586 52.5184 9.35892 52.5753 9.83852C52.8228 11.9484 54.7095 13.1941 56.6063 12.5263C57.9761 12.0434 58.789 10.6712 58.5649 9.21737C58.3391 7.75858 57.1348 6.70445 55.601 6.70112C49.9459 6.6878 44.2908 6.69446 38.6357 6.69446C38.4266 6.69446 38.2159 6.71111 38.0102 6.67947C37.6154 6.61952 37.3528 6.40303 37.3729 5.97172C37.393 5.54541 37.6556 5.34724 38.0687 5.32892C38.236 5.32226 38.4032 5.32393 38.5688 5.32393C41.4072 5.32393 44.244 5.32393 47.0824 5.32393C47.0824 5.32726 47.0824 5.33059 47.0824 5.33392H47.0841Z" fill="#2563EB"/>
<path d="M20.2955 1.3672C18.3134 1.3672 16.3314 1.3672 14.3494 1.3672C13.6201 1.3672 13.2906 1.15404 13.3257 0.674441C13.3709 0.0516239 13.8242 0 14.3209 0C18.3268 0.00333057 22.3327 0 26.3386 0.00333057C27.0713 0.00333057 27.4409 0.361367 27.2736 0.889263C27.1415 1.30559 26.812 1.37053 26.4306 1.36887C24.3867 1.36387 22.3411 1.36554 20.2955 1.3672Z" fill="#2563EB"/>
<path d="M13.8944 6.66444C15.2091 6.66444 16.5238 6.66777 17.8384 6.66444C18.3168 6.66277 18.7366 6.74437 18.7851 7.32389C18.8219 7.77852 18.479 8.03164 17.8217 8.03331C15.1723 8.0383 12.5229 8.03664 9.87177 8.03497C9.40009 8.03497 8.9719 7.95504 8.93009 7.36719C8.89663 6.90258 9.21778 6.66944 9.89017 6.66777C11.2249 6.66111 12.5613 6.6661 13.8961 6.6661L13.8944 6.66444Z" fill="#2563EB"/>
<path d="M52.6405 1.3356C53.7243 1.3356 54.8099 1.34226 55.8937 1.33227C56.3805 1.32727 56.7501 1.50379 56.7451 2.0167C56.7401 2.52794 56.357 2.70446 55.882 2.70446C53.6926 2.70446 51.5031 2.70446 49.3137 2.70446C48.8386 2.70446 48.459 2.52295 48.464 2.00504C48.469 1.48547 48.842 1.32727 49.3254 1.33227C50.431 1.34226 51.5349 1.3356 52.6405 1.3356Z" fill="#2563EB"/>
<path d="M42.1365 2.70282C41.5946 2.70282 41.051 2.71947 40.5107 2.69782C40.0608 2.6795 39.738 2.47134 39.7614 1.97342C39.7831 1.5088 40.0942 1.33728 40.5258 1.33728C41.5895 1.33728 42.6533 1.33895 43.7154 1.33728C44.162 1.33728 44.4597 1.55044 44.4715 1.98841C44.4848 2.46634 44.157 2.68949 43.7004 2.70115C43.1802 2.71447 42.6583 2.70448 42.1365 2.70448V2.70282Z" fill="#2563EB"/>
<path d="M4.96599 6.67781C5.33898 6.67781 5.73874 6.59621 6.07828 6.70446C6.33084 6.78439 6.66369 7.10579 6.66871 7.32561C6.67373 7.54876 6.33753 7.95342 6.12009 7.97674C5.34065 8.05667 4.54114 8.05667 3.76171 7.97674C3.54259 7.95509 3.20473 7.55375 3.20807 7.3306C3.21142 7.11079 3.54259 6.77939 3.79181 6.70612C4.15477 6.59954 4.57292 6.67781 4.96599 6.67781Z" fill="#2563EB"/>
<path d="M11.8438 41.0127C10.2163 41.0127 8.58887 41.0177 6.96309 41.011C6.00636 41.006 5.52297 40.5564 5.50959 39.6105C5.48952 38.1567 5.49119 36.7029 5.50959 35.2492C5.5213 34.3049 5.99799 33.8103 6.93633 33.807C10.1912 33.7937 13.4445 33.792 16.6994 33.807C17.6444 33.812 18.1077 34.3099 18.1127 35.2541C18.1211 36.688 18.1194 38.1201 18.1127 39.5539C18.1077 40.5498 17.6561 41.0077 16.6659 41.0127C15.0602 41.021 13.4528 41.0144 11.8471 41.0144L11.8438 41.0127Z" fill="#2563EB"/>
<path d="M47.3249 38.7945C46.4284 38.7945 45.5302 38.8045 44.6337 38.7928C43.493 38.7778 42.8908 38.185 42.8841 37.0642C42.8758 35.319 42.8758 33.5738 42.8841 31.8286C42.8892 30.7645 43.4645 30.1516 44.525 30.1183C45.7343 30.08 46.9452 30.0684 48.1545 30.0833C48.9624 30.0933 49.5311 30.483 49.8004 31.2757C50.4025 33.0426 51.0281 34.8028 51.6219 36.573C52.04 37.8203 51.3375 38.7712 50.0162 38.7961C49.9961 38.7961 49.9743 38.7961 49.9543 38.7961C49.0778 38.7961 48.2014 38.7961 47.3249 38.7961V38.7945Z" fill="#2563EB"/>
<path d="M45.3446 42.0085C44.9699 42.0085 44.5701 42.0884 44.2273 41.9818C43.9713 41.9019 43.6268 41.5855 43.6218 41.369C43.6167 41.1409 43.9513 40.7245 44.167 40.7029C44.9716 40.623 45.7928 40.623 46.5957 40.7029C46.8081 40.7245 47.1326 41.1475 47.1242 41.3757C47.1159 41.5938 46.7746 41.9102 46.5204 41.9835C46.1541 42.0884 45.7359 42.0101 45.3412 42.0085H45.3446Z" fill="#2563EB"/>
<path d="M13.8727 53.0161C13.8392 54.4399 12.6734 55.524 11.2199 55.4824C9.82828 55.4424 8.70261 54.2667 8.73774 52.8878C8.77286 51.4807 9.98384 50.325 11.3788 50.3699C12.8072 50.4165 13.9061 51.5823 13.8727 53.0144V53.0161Z" fill="#2563EB"/>
<path d="M49.4341 55.484C47.994 55.474 46.8733 54.3366 46.8884 52.9012C46.9018 51.5173 48.0508 50.3782 49.4441 50.3699C50.8541 50.3616 52.0317 51.5323 52.03 52.9395C52.0283 54.3616 50.8742 55.4923 49.4358 55.4824L49.4341 55.484Z" fill="#2563EB"/>
</g>
<defs>
<clipPath id="clip0_1_86">
<rect width="60" height="58.8079" fill="white"/>
</clipPath>
</defs>
</svg>
