<svg width="60" height="66" viewBox="0 0 60 66" fill="none" xmlns="http://www.w3.org/2000/svg">
<g clip-path="url(#clip0_1_103)">
<path d="M36.4834 0C38.7486 0.964782 39.5182 2.11209 39.2544 4.49238C39.1481 5.47579 38.8768 6.49644 38.437 7.37927C37.3668 9.52116 36.1572 11.5886 35.0027 13.682C34.8781 13.9055 34.7278 14.1141 34.5409 14.4047C35.5378 14.7287 36.4908 15.0379 37.4437 15.3434C39.1554 15.8947 40.8671 16.4534 42.5824 16.9936C43.7443 17.3623 44.569 18.1036 45.0821 19.2137C45.8628 20.9048 46.6435 22.5923 47.4205 24.2872C47.7504 25.0135 47.6074 25.5611 47.043 25.8144C46.5079 26.0566 46.0277 25.8144 45.7015 25.1104C44.9428 23.4826 44.1804 21.851 43.4474 20.212C43.1175 19.4782 42.619 19.0163 41.8493 18.7779C39.9068 18.1818 37.9788 17.5374 36.0436 16.9153C35.8677 16.8595 35.6881 16.8185 35.4095 16.7477C35.5195 17.0234 35.5891 17.2133 35.6734 17.3959C37.2458 20.8415 38.7999 24.2946 40.3979 27.7291C41.0173 29.0589 41.043 30.3292 40.4785 31.6925C37.4107 39.1314 34.3869 46.5889 31.3301 54.0352C31.1505 54.471 31.1542 54.8137 31.3558 55.2421C32.4517 57.5628 33.5146 59.9021 34.5922 62.234C35.2666 63.6905 36.2672 64.0704 37.6856 63.3962C44.0265 60.3901 50.3674 57.3803 56.7046 54.3667C58.0534 53.726 58.4272 52.6756 57.7895 51.301C54.5237 44.231 51.258 37.1609 47.9923 30.087C47.9117 29.912 47.8274 29.7369 47.754 29.5618C47.4975 28.9397 47.6368 28.4182 48.1206 28.1724C48.6374 27.9079 49.1725 28.1202 49.4657 28.7386C50.2024 30.3068 50.9245 31.8825 51.6502 33.4582C54.2415 39.0718 56.8365 44.6854 59.4278 50.299C60.63 52.9065 59.9043 54.9739 57.357 56.1883C51.0564 59.1832 44.7559 62.1744 38.4553 65.1619C36.1352 66.2607 33.9947 65.4785 32.9135 63.1429C32.0778 61.3363 31.2421 59.5296 30.4065 57.7267C30.3258 57.5554 30.2379 57.3877 30.0986 57.1121C29.8823 57.6261 29.7027 58.0433 29.5305 58.4605C28.8487 60.1256 28.1817 61.7944 27.4853 63.4521C26.558 65.6685 24.4504 66.5625 22.2623 65.6498C18.4468 64.063 14.6423 62.4538 10.8341 60.852C10.112 60.5466 9.84079 60.0288 10.0974 59.4589C10.3356 58.9225 10.8634 58.7734 11.5708 59.0715C15.2837 60.6285 18.9929 62.193 22.7021 63.7538C24.2635 64.4131 25.1908 64.0295 25.8322 62.4612C30.1169 51.979 34.3906 41.4968 38.6936 31.0257C39.0564 30.1392 39.0491 29.3681 38.6496 28.5039C36.839 24.6038 35.065 20.6851 33.2837 16.7701C32.8695 15.8649 32.2757 15.1534 31.2568 14.7548C31.1578 15.5781 31.0442 16.338 30.9929 17.1053C30.9819 17.258 31.1762 17.4592 31.3191 17.5896C32.3967 18.5506 32.7632 20.0257 32.2318 21.3369C31.6893 22.678 30.3881 23.4677 28.9294 23.341C27.5916 23.2255 26.448 22.2049 26.1181 20.8266C25.7003 19.0945 26.8035 17.2916 28.5628 16.9228C28.9843 16.8334 29.1163 16.6769 29.142 16.2709C29.1749 15.7196 29.2702 15.1758 29.3545 14.5201C29.032 14.6244 28.7938 14.684 28.5665 14.7735C24.5751 16.3156 20.5909 17.8689 16.5958 19.4037C15.8921 19.6719 15.434 20.13 15.1481 20.8303C10.8304 31.4131 6.50542 41.9922 2.1841 52.5713C1.57567 54.065 1.97885 55.0373 3.44861 55.6593C4.54085 56.1212 5.64043 56.572 6.73267 57.0339C7.45106 57.3393 7.71495 57.8608 7.45839 58.4345C7.22015 58.9671 6.69968 59.105 5.98496 58.8107C4.81208 58.3265 3.63554 57.8422 2.46633 57.3356C0.340487 56.4118 -0.553832 54.2401 0.333156 52.0647C4.68746 41.3813 9.0601 30.7054 13.4181 20.0257C13.8909 18.8673 14.6826 18.0775 15.8371 17.6305C19.8689 16.0772 23.8933 14.5052 27.9251 12.9482C28.222 12.8327 28.5299 12.68 28.8341 12.6763C29.5195 12.6763 29.6624 12.3112 29.7687 11.6966C30.1426 9.52116 30.5824 7.35693 31.0259 5.19641C31.1248 4.71961 31.3228 4.2577 31.5134 3.80325C32.2574 2.04876 33.3167 0.607179 35.2079 0H36.4798L36.4834 0ZM32.8695 13.3579C32.9135 13.3207 32.9795 13.2872 33.0088 13.235C34.2989 10.9031 35.6258 8.59363 36.85 6.22824C37.1908 5.56891 37.3081 4.76058 37.3924 4.0044C37.506 2.98002 37.1285 2.34677 36.4028 2.05249C35.6954 1.76566 34.9404 1.95191 34.3576 2.78259C33.8041 3.57602 33.2324 4.44023 32.9941 5.36031C32.3747 7.77785 31.9349 10.2401 31.4254 12.68C31.9898 12.9445 32.426 13.1493 32.8695 13.3579ZM29.2849 21.4077C29.9996 21.3965 30.5531 20.8229 30.5567 20.0965C30.5567 19.3441 29.9703 18.7555 29.2299 18.7741C28.5079 18.7928 27.9617 19.3552 27.9581 20.0853C27.9581 20.8378 28.5409 21.4189 29.2849 21.4077Z" fill="#2563EB"/>
<path d="M21.1998 29.6364C26.9762 29.6364 31.6494 34.2293 31.8729 40.1223C31.9023 40.9306 31.5797 41.3814 30.953 41.4C30.3482 41.4149 30.022 41.0275 29.9744 40.2452C29.6958 35.6932 26.8589 32.4264 22.5193 31.6665C17.6115 30.806 12.7514 34.7247 12.4692 39.7684C12.2273 44.0559 14.8369 47.8778 18.7477 48.973C22.8418 50.1203 26.9579 48.3248 28.9957 44.5253C29.157 44.2236 29.4209 43.8697 29.7068 43.7765C29.9817 43.6909 30.5168 43.8138 30.6451 44.0299C30.8284 44.3353 30.898 44.8754 30.7551 45.1958C29.9047 47.0769 28.5816 48.5818 26.8222 49.6286C23.1057 51.8412 19.3012 51.9157 15.6323 49.6323C11.956 47.3451 10.2847 43.851 10.5889 39.4965C10.9774 33.9537 15.6872 29.6364 21.1961 29.6364H21.1998Z" fill="#2563EB"/>
<path d="M21.5223 36.2147C22.0171 34.7842 22.3323 34.4229 22.9481 34.5831C23.4026 34.7023 23.7068 35.0115 23.6701 35.5069C23.6408 35.9241 23.5052 36.3339 23.4136 36.7771C24.4288 37.0826 25.1216 37.6525 25.0629 38.8259C25.0373 39.3772 24.8064 39.7795 24.2273 39.8689C23.6885 39.9546 23.3183 39.6566 23.1497 39.0271C23.135 38.9675 23.1497 38.893 23.124 38.8371C22.9701 38.5204 21.0018 38.0585 20.7086 38.2671C20.2725 38.5763 20.3348 39.2282 20.8479 39.4629C21.1704 39.6119 21.526 39.6976 21.8668 39.8056C23.3439 40.2749 24.1173 41.4371 23.8901 42.8527C23.6848 44.1527 22.6146 44.9908 21.1448 45.0057C21.0825 45.0057 21.0202 45.0132 20.9139 45.0206C20.562 45.6837 20.6683 46.8831 19.3928 46.6038C18.7514 46.4622 18.6927 46.0115 19.008 44.4656C18.8064 44.3799 18.5938 44.3017 18.3922 44.2048C17.6005 43.8212 17.2047 42.9719 17.4062 42.1188C17.5199 41.642 17.8058 41.3701 18.2896 41.3477C18.7734 41.3254 19.1509 41.5563 19.2242 42.0369C19.2902 42.469 19.5284 42.5882 19.873 42.6776C20.2395 42.7744 20.5987 42.9085 20.9652 43.0166C21.3904 43.1395 21.8009 43.1246 21.9658 42.6329C22.1417 42.1225 21.8558 41.8208 21.3867 41.6718C21.0642 41.5712 20.7379 41.4818 20.4154 41.3738C19.0703 40.9305 18.3409 39.7721 18.5425 38.4087C18.7367 37.1049 19.7813 36.237 21.1814 36.2109C21.2841 36.2109 21.3867 36.2109 21.5186 36.2109L21.5223 36.2147Z" fill="#2563EB"/>
<path d="M53.5015 51.2526C53.278 51.491 53.069 51.9045 52.7612 51.9976C52.4716 52.087 52.0611 51.8821 51.7496 51.7182C51.5956 51.6363 51.5333 51.3643 51.4453 51.1706C49.5284 47.0433 47.6115 42.916 45.6946 38.7886C45.6066 38.5949 45.5076 38.4012 45.46 38.1926C45.3464 37.7121 45.537 37.3508 45.9585 37.1236C46.369 36.9038 46.7465 36.9969 47.0544 37.3247C47.1973 37.4774 47.2926 37.6786 47.3806 37.8723C49.3268 42.0592 51.2657 46.2424 53.2047 50.4331C53.3036 50.6417 53.3659 50.8689 53.5052 51.2526H53.5015Z" fill="#2563EB"/>
<path d="M49.2535 53.5547C49.0336 53.7968 48.8357 54.2029 48.5388 54.2923C48.2456 54.3817 47.8351 54.2066 47.5162 54.0613C47.3586 53.9868 47.2816 53.7186 47.1937 53.5249C45.2584 49.3566 43.3268 45.1883 41.3989 41.02C41.3183 40.8449 41.2266 40.6699 41.1937 40.4836C41.1057 39.977 41.2963 39.5933 41.7728 39.3996C42.2273 39.2134 42.6048 39.3661 42.8833 39.7535C42.9933 39.9062 43.0666 40.0925 43.1472 40.2638C45.0642 44.3912 46.9811 48.5185 48.8943 52.6495C49.0116 52.8991 49.0959 53.1636 49.2499 53.5547H49.2535Z" fill="#2563EB"/>
</g>
<defs>
<clipPath id="clip0_1_103">
<rect width="60" height="66" fill="white"/>
</clipPath>
</defs>
</svg>
