<svg width="60" height="75" viewBox="0 0 60 75" fill="none" xmlns="http://www.w3.org/2000/svg">
<g clip-path="url(#clip0_1_100)">
<path d="M38.083 0C38.3833 0.211323 38.6582 0.450039 38.9193 0.710279C40.4583 2.24824 42.0071 3.77642 43.5422 5.31829C43.8445 5.62353 44.1762 5.80159 44.6022 5.91117C46.7773 6.46491 48.9386 7.07344 51.1136 7.63501C51.8105 7.81503 52.1736 8.20441 52.3523 8.9049C52.9039 11.0749 53.5163 13.2292 54.0895 15.3933C54.1936 15.7846 54.3781 16.0977 54.6667 16.3814C56.2528 17.9409 57.8114 19.5297 59.4113 21.0755C59.9727 21.6175 60.1082 22.1752 59.9001 22.9168C59.3034 25.0496 58.7616 27.198 58.1766 29.3347C58.0686 29.7261 58.0568 30.0783 58.1648 30.4755C58.7557 32.6102 59.2975 34.7587 59.906 36.8876C60.1278 37.6604 59.9826 38.2201 59.3976 38.7836C57.8114 40.3079 56.2822 41.8908 54.7118 43.4327C54.3997 43.7379 54.2132 44.0745 54.1052 44.4854C53.532 46.6495 52.9255 48.8058 52.3817 50.9777C52.2031 51.688 51.8144 52.0519 51.1254 52.2241C49.6825 52.5861 48.2515 52.997 46.8087 53.3668C46.3984 53.4725 46.2708 53.5899 46.4121 54.0575C46.8263 55.4311 47.164 56.8282 47.5311 58.2175C47.5684 58.3583 47.6155 58.4992 47.6351 58.6421C47.7313 59.3386 47.427 59.8415 46.8224 60C46.2512 60.1507 45.6819 59.8082 45.4797 59.1547C45.3011 58.5736 45.1637 57.9807 45.0066 57.3917C44.7612 56.474 44.5119 55.5583 44.2705 54.6406C44.2273 54.4763 44.2057 54.306 44.0467 54.1965C43.7974 54.2708 43.6619 54.488 43.4931 54.6563C41.9502 56.1903 40.4013 57.7185 38.88 59.2741C38.3657 59.8004 37.8435 60 37.1093 59.7652C36.1357 59.4521 35.1306 59.2291 34.1412 58.9649C33.9567 58.916 33.78 58.8201 33.5209 58.9493C34.6477 63.1424 35.7764 67.3376 36.9327 71.6384C38.0575 70.4116 39.1175 69.2708 40.1618 68.1183C41.5968 66.5354 41.3868 66.553 43.4538 67.2241C44.9124 67.6976 46.3807 68.1437 47.8294 68.5977C48.014 68.3766 47.9099 68.1966 47.8589 68.0126C47.5252 66.7662 47.1954 65.5198 46.8636 64.2734C46.8322 64.156 46.7871 64.0406 46.7714 63.9212C46.6889 63.2833 47.003 62.802 47.5958 62.6396C48.1514 62.487 48.7265 62.7844 48.917 63.3929C49.1565 64.158 49.339 64.9426 49.5471 65.7175C49.9004 67.0343 50.244 68.3531 50.6091 69.6661C50.7583 70.2061 50.8486 70.7188 50.3853 71.159C49.9161 71.6051 49.3999 71.4525 48.8738 71.2842C46.8754 70.6444 44.8672 70.028 42.8767 69.3628C42.386 69.1984 42.0895 69.2708 41.748 69.6582C40.5015 71.069 39.2196 72.4465 37.9495 73.8358C37.7513 74.053 37.5569 74.2721 37.3528 74.4815C36.5185 75.3365 35.588 75.1272 35.2641 73.9825C34.7655 72.2274 34.3042 70.4605 33.8311 68.6975C32.9399 65.3829 32.0545 62.0682 31.1633 58.7555C30.9984 58.1392 30.6333 57.8594 30.0287 57.8789C29.3318 57.9024 29.0118 58.147 28.8371 58.7927C27.5062 63.7529 26.1772 68.7132 24.8463 73.6734C24.7953 73.8612 24.754 74.0549 24.6814 74.233C24.3555 75.0411 23.482 75.2465 22.8362 74.6556C22.5672 74.4091 22.3297 74.1273 22.0823 73.8553C20.8123 72.4661 19.5304 71.0886 18.2858 69.6778C17.9247 69.2689 17.6184 69.2043 17.0963 69.3804C15.1548 70.0359 13.1918 70.6248 11.2366 71.2392C11.1208 71.2764 11.003 71.3116 10.8852 71.3449C9.79378 71.658 9.0655 71.0044 9.33051 69.9067C9.60337 68.7719 9.93316 67.6487 10.2374 66.5217C11.3406 62.4341 12.4439 58.3446 13.5451 54.2571C13.7434 53.5214 13.7395 53.5194 12.9641 53.3159C11.643 52.9677 10.3258 52.5978 8.99679 52.2808C8.24888 52.1028 7.8386 51.7173 7.64623 50.9444C7.10836 48.7725 6.49 46.6182 5.91287 44.456C5.81472 44.0921 5.64786 43.7927 5.37304 43.5247C4.37386 42.5541 3.3943 41.5621 2.40101 40.5837C2.0457 40.2335 1.83958 39.8402 1.98092 39.3373C2.20078 38.5527 3.18426 38.2709 3.80654 38.8658C5.08055 40.0809 6.3094 41.341 7.55396 42.5854C7.80719 42.8379 7.87001 43.1822 7.95835 43.5129C8.50014 45.5342 9.05175 47.5535 9.57981 49.5787C9.68974 49.9974 9.87426 50.2165 10.3258 50.3281C12.2908 50.8153 14.24 51.371 16.2031 51.866C16.8685 52.0343 17.4005 52.3435 17.8795 52.8346C19.2968 54.2865 20.7632 55.6914 22.1785 57.1452C22.5024 57.4778 22.7949 57.5189 23.2032 57.4074C25.2507 56.8478 27.306 56.3077 29.3534 55.7462C29.8186 55.619 30.2584 55.619 30.7236 55.7462C32.7494 56.296 34.7831 56.8165 36.8031 57.38C37.286 57.515 37.5962 57.425 37.9476 57.065C39.4139 55.5583 40.9196 54.0888 42.3997 52.5959C42.7197 52.273 43.073 52.0656 43.5186 51.9482C45.5955 51.4023 47.6626 50.8172 49.7434 50.285C50.1674 50.1774 50.3441 49.9798 50.4481 49.5787C50.9723 47.5535 51.5298 45.5342 52.0578 43.509C52.1913 42.9983 52.4229 42.5757 52.8057 42.2019C54.3074 40.7305 55.7797 39.2297 57.2814 37.7583C57.5994 37.4472 57.676 37.1713 57.5504 36.7291C56.9615 34.6452 56.4255 32.5457 55.8543 30.4579C55.7542 30.09 55.7542 29.7554 55.8543 29.3856C56.4295 27.2724 56.9732 25.1513 57.5602 23.04C57.6681 22.6507 57.5936 22.4139 57.3168 22.1419C55.815 20.6705 54.3388 19.1736 52.8371 17.7022C52.4406 17.3128 52.1815 16.8862 52.0421 16.3423C51.5278 14.3386 50.9566 12.3506 50.4462 10.345C50.3205 9.84999 50.0575 9.64453 49.5883 9.52322C47.5546 9.00274 45.5307 8.44313 43.499 7.92265C43.0534 7.80916 42.6961 7.6037 42.3761 7.28281C40.8921 5.79181 39.3806 4.33212 37.922 2.81764C37.5373 2.41847 37.1996 2.37542 36.7108 2.51044C34.6889 3.07201 32.6572 3.60031 30.6333 4.1521C30.1936 4.27146 29.7755 4.27146 29.3357 4.1521C27.3099 3.60031 25.2762 3.07983 23.2562 2.51435C22.7498 2.37151 22.4259 2.45956 22.0529 2.84503C20.6101 4.33994 19.1182 5.78789 17.6557 7.26324C17.3181 7.6037 16.9471 7.82481 16.474 7.94808C14.4422 8.47639 12.4242 9.0497 10.3905 9.57018C9.90567 9.69345 9.66815 9.89303 9.54055 10.4018C9.04783 12.3859 8.48051 14.3504 7.96816 16.3306C7.8229 16.896 7.56182 17.348 7.14369 17.757C5.67534 19.1932 4.24037 20.6627 2.77006 22.0969C2.43438 22.4256 2.33427 22.7074 2.46972 23.1829C3.06059 25.2668 3.59846 27.3663 4.16185 29.458C4.23841 29.7437 4.29533 30.0157 4.21289 30.317C3.78495 31.8902 3.37075 33.4673 2.9487 35.0424C2.80932 35.5648 2.47561 35.9112 1.93381 35.9679C1.45876 36.0168 1.074 35.7957 0.852181 35.3633C0.673545 35.015 0.738325 34.6491 0.83255 34.291C1.16234 33.0446 1.48231 31.7943 1.83566 30.5537C1.94755 30.1624 1.95344 29.8082 1.84351 29.413C1.25264 27.2782 0.714769 25.1298 0.102303 23.0009C-0.121482 22.2222 0.0335973 21.6684 0.616617 21.1068C2.20078 19.5806 3.73195 17.9977 5.30237 16.4577C5.61449 16.1525 5.79902 15.814 5.90895 15.405C6.47626 13.2644 7.07891 11.1316 7.60893 8.98317C7.79934 8.21615 8.21747 7.83068 8.95753 7.64284C11.0403 7.11453 13.1093 6.54318 15.1901 6.00704C15.728 5.86812 16.1618 5.62353 16.5545 5.22045C17.9188 3.81946 19.3125 2.44782 20.6964 1.0664C21.0557 0.708322 21.4169 0.356118 21.7781 0C22.0725 0 22.365 0 22.6595 0C22.7184 0.0841378 22.8047 0.119358 22.9029 0.144795C25.1192 0.731803 27.3354 1.31294 29.5477 1.9156C29.8991 2.01148 30.2191 1.96648 30.5489 1.88038C31.8465 1.53992 33.1519 1.22489 34.4357 0.835507C35.3524 0.557657 36.3281 0.446126 37.2016 0H38.083ZM23.0737 71.6364C24.2319 67.3317 25.3606 63.1307 26.5227 58.8123C25.2526 59.1508 24.116 59.4169 23.003 59.7613C22.2551 59.9941 21.7113 59.8376 21.1676 59.276C19.6541 57.7165 18.0994 56.1962 16.5525 54.668C16.3719 54.49 16.2423 54.2258 15.8595 54.1925C14.5777 58.961 13.2958 63.7334 12.0159 68.4999C12.3339 68.6036 12.5067 68.4999 12.6892 68.4412C14.3186 67.9285 15.9518 67.4315 17.5733 66.8993C18.1818 66.6997 18.6706 66.7956 19.0887 67.2789C19.2948 67.5196 19.5167 67.7485 19.7306 67.9833C20.8162 69.1691 21.9017 70.3568 23.0756 71.6384L23.0737 71.6364Z" fill="#2563EB"/>
<path d="M23.0793 24.1847C24.4515 23.1085 25.749 22.1184 27.0152 21.0872C28.6308 19.7723 29.2766 18.0191 29.2491 15.9803C29.2413 15.4696 29.202 14.9589 29.3649 14.458C29.7831 13.1744 30.8902 12.3252 32.2015 12.2997C33.6365 12.2723 34.8222 13.0276 35.2501 14.3621C36.212 17.3597 36.5437 20.4063 35.7978 23.5116C35.7762 23.6035 35.7624 23.6994 35.7428 23.7953C36.0078 23.9557 36.2807 23.8814 36.5418 23.8814C38.5009 23.8892 40.46 23.8579 42.4191 23.8951C44.9121 23.942 46.4826 26.4662 45.4461 28.6851C45.2243 29.1605 44.6766 29.4697 44.5902 29.9256C44.5038 30.3796 44.9435 30.8492 44.9828 31.3696C45.0633 32.3989 44.7983 33.3126 44.0719 34.0523C43.8011 34.3282 43.7912 34.5297 43.9404 34.8721C44.547 36.2731 44.2957 37.5489 43.2298 38.6348C42.9668 38.9029 42.9197 39.0829 43.059 39.443C43.9797 41.8047 42.4053 44.0803 39.8613 44.0842C35.9195 44.0901 31.9758 44.0764 28.034 44.094C27.0878 44.0979 26.2516 43.8377 25.5017 43.2839C24.7989 42.7654 24.0157 42.4797 23.148 42.4054C23.0106 42.7185 23.0793 43.0159 23.0695 43.3035C23.0401 44.2877 22.6631 44.6771 21.6816 44.6791C19.7481 44.6849 17.8125 44.6791 15.8789 44.683C15.7395 44.683 15.5904 44.638 15.4176 44.7769C16.0536 45.5224 16.8231 46.1133 17.6005 46.6827C21.8858 49.8154 26.7109 51.1538 31.9718 50.6528C42.052 49.6921 49.3407 41.9495 50.5951 33.1483C51.663 25.66 49.2995 19.3653 43.7029 14.2682C43.5576 14.1371 43.4026 14.0157 43.271 13.8709C42.8333 13.3935 42.8136 12.8006 43.2102 12.3526C43.5949 11.9182 44.231 11.8458 44.7315 12.2254C45.4147 12.7439 46.0311 13.3407 46.618 13.9629C50.9445 18.5377 53.1097 23.9616 53.0783 30.2602C53.0253 40.6052 45.6286 50.3124 34.5375 52.5176C21.874 55.0358 10.0311 46.9214 7.4163 34.8154C4.94877 23.3922 11.2619 12.1667 22.3216 8.2435C28.0752 6.20267 33.7975 6.47856 39.4039 8.91464C39.7749 9.07509 40.1243 9.25315 40.2578 9.65819C40.3972 10.0769 40.3481 10.4859 40.0242 10.8146C39.6551 11.1883 39.2017 11.2333 38.7384 11.0396C37.8374 10.662 36.9344 10.2922 35.996 10.0163C25.4722 6.92273 14.4498 12.3252 10.4983 22.5176C10.4295 22.6937 10.3255 22.8698 10.353 23.083C10.6023 23.222 10.8732 23.1515 11.1323 23.1535C14.5107 23.1594 17.891 23.1652 21.2694 23.1515C22.0684 23.1476 22.8182 23.1633 23.0793 24.1866V24.1847ZM23.0695 33.6179C23.0695 35.5941 23.0793 37.5704 23.0616 39.5467C23.0577 39.9536 23.1382 40.1297 23.5995 40.1904C24.6988 40.3372 25.7392 40.7011 26.6422 41.3722C27.1565 41.7538 27.7121 41.9025 28.352 41.8986C32.0484 41.8829 35.7448 41.8908 39.4412 41.8908C39.6375 41.8908 39.8357 41.9025 40.0281 41.879C40.6838 41.7969 41.1235 41.3057 41.1019 40.7031C41.0803 40.1102 40.672 39.6875 40.0183 39.6269C39.5805 39.5858 39.1349 39.623 38.7011 39.5643C37.9866 39.4645 37.6097 38.854 37.7981 38.1711C37.9237 37.7132 38.336 37.4002 38.9072 37.3786C39.4686 37.3571 40.034 37.3767 40.5954 37.3708C41.4965 37.363 42.0225 36.958 42.0363 36.2653C42.05 35.5746 41.5141 35.1402 40.6308 35.1265C40.2637 35.1206 39.8927 35.1519 39.5315 35.1069C38.8051 35.0189 38.3968 34.4475 38.5264 33.7607C38.6226 33.2539 39.0054 32.9272 39.6434 32.89C40.2774 32.8528 40.9154 32.89 41.5514 32.8646C42.2797 32.8372 42.7665 32.393 42.7822 31.7747C42.7999 31.1251 42.2895 30.6339 41.5396 30.6124C40.9291 30.5948 40.3147 30.6183 39.7042 30.6046C38.9563 30.587 38.5107 30.1682 38.5068 29.5088C38.5048 28.8455 38.9426 28.4268 39.6924 28.4131C40.4757 28.3994 41.2589 28.4092 42.0422 28.4092C42.2876 28.4092 42.529 28.4053 42.7646 28.3133C43.2789 28.1137 43.5537 27.7185 43.5282 27.1901C43.5046 26.701 43.2082 26.339 42.7155 26.1805C42.4289 26.0885 42.1364 26.0983 41.8419 26.0983C39.345 26.0983 36.848 26.1061 34.351 26.0924C33.2871 26.0866 32.8199 25.4448 33.1791 24.4508C33.9309 22.3669 34.1508 20.238 33.8289 18.0485C33.6875 17.0819 33.4579 16.1368 33.185 15.2035C33.0397 14.7045 32.6255 14.4403 32.2015 14.5049C31.7598 14.5714 31.4791 14.9158 31.4595 15.448C31.4457 15.8374 31.4673 16.2288 31.4516 16.6181C31.3692 18.747 30.6409 20.6098 29.1333 22.1478C28.4286 22.8659 27.6375 23.4803 26.8385 24.0829C25.7647 24.893 24.6949 25.7031 23.6937 26.6031C23.2462 27.0062 23.0322 27.4249 23.0479 28.055C23.097 29.908 23.0656 31.7629 23.0656 33.6179H23.0695ZM20.812 33.9603C20.812 31.3266 20.8101 28.6929 20.814 26.0592C20.814 25.662 20.8179 25.3665 20.2506 25.3704C16.8742 25.3939 13.4978 25.3841 10.1214 25.3782C9.77782 25.3782 9.61489 25.4624 9.54226 25.8459C9.15162 27.918 9.02795 29.9921 9.24781 32.0995C9.62863 35.7428 10.8889 39.0379 13.0011 42.0258C13.2367 42.3584 13.486 42.4934 13.9002 42.4895C15.979 42.468 18.0598 42.4817 20.1387 42.4797C20.8022 42.4797 20.8081 42.4739 20.8101 41.789C20.812 39.1788 20.8101 36.5705 20.8101 33.9603H20.812Z" fill="#2563EB"/>
</g>
<defs>
<clipPath id="clip0_1_100">
<rect width="60" height="75" fill="white"/>
</clipPath>
</defs>
</svg>
