<svg width="130" height="138" viewBox="0 0 130 138" fill="none" xmlns="http://www.w3.org/2000/svg">
<path d="M101.022 56.0058C101.037 58.4134 100.082 60.2 98.5411 61.768C88.3241 72.169 78.1262 82.5892 67.9207 93.0018C67.6178 93.3085 67.3226 93.619 67.0159 93.9219C63.6039 97.3493 59.4212 97.3608 56.0398 93.9449C54.1229 92.0088 52.2291 90.0498 50.3198 88.106C46.6087 84.3144 42.8861 80.5343 39.1827 76.7351C35.8473 73.3153 35.8473 69.0943 39.1674 65.6746C39.9341 64.8848 40.6932 64.0913 41.4791 63.3207C44.6497 60.2076 49.0432 60.2191 52.2061 63.3782C54.3338 65.5059 56.4155 67.6873 58.5203 69.8381C61.0966 72.4757 61.9247 72.4719 64.4665 69.8803C71.3903 62.8108 78.3141 55.7451 85.2494 48.6833C88.903 44.9607 92.986 44.953 96.6319 48.6335C97.4408 49.4501 98.2536 50.2551 99.028 51.1024C100.335 52.5324 101.048 54.2078 101.025 56.0058H101.022ZM96.6971 56.2742C96.237 55.4346 95.9533 54.7215 95.4971 54.1464C94.9067 53.4027 94.1821 52.7624 93.5112 52.0839C91.4793 50.0213 90.425 50.0213 88.3931 52.0954C81.3658 59.2645 74.3423 66.4337 67.315 73.6067C63.6729 77.3216 59.4021 77.3485 55.7753 73.6604C53.5977 71.4444 51.4355 69.2094 49.2617 66.9934C47.456 65.1532 46.1832 65.1455 44.4043 66.9513C43.8331 67.5302 43.2695 68.1129 42.7021 68.6995C40.8581 70.6125 40.8427 71.7895 42.7021 73.6949C48.1461 79.2692 53.5977 84.8358 59.0532 90.3986C60.9241 92.3079 62.0895 92.3079 63.9834 90.3795C69.5117 84.7515 75.0285 79.1158 80.5492 73.484C85.4027 68.5346 90.2678 63.5967 95.0907 58.6205C95.7233 57.9687 96.1373 57.1023 96.6971 56.278V56.2742Z" fill="#E0E7FF"/>
<path d="M128.583 47.8705C128.544 62.0478 126.294 75.8111 120.823 88.9648C120.474 89.8006 120.121 90.6363 119.73 91.4529C119.04 92.8867 117.833 93.412 116.583 92.8637C115.375 92.3347 114.957 91.035 115.498 89.582C116.943 85.6984 118.553 81.8608 119.776 77.9082C122.188 70.1218 123.307 62.0977 123.771 53.9624C124.197 46.4827 123.76 39.0605 122.832 31.6498C122.583 29.6716 122.1 29.1463 119.922 28.7591C112.009 27.356 104.311 25.186 96.812 22.3069C86.2385 18.2469 76.3588 12.8873 67.1923 6.22801C66.6901 5.8638 66.1955 5.48042 65.6741 5.14689C64.4626 4.36863 63.9144 4.43764 62.5496 5.37308C59.6742 7.34748 56.8104 9.33337 53.9006 11.2503C52.3095 12.3007 50.6457 13.2477 48.9895 14.2023C47.5327 15.0419 46.1832 14.7927 45.4739 13.6157C44.734 12.3889 45.1519 11.1851 46.5857 10.2535C51.1479 7.28613 55.7178 4.32646 60.2531 1.32461C62.9023 -0.427429 65.7623 -0.488769 68.3999 1.42429C73.6292 5.21206 79.0271 8.7238 84.7395 11.741C96.0836 17.7293 108.057 21.9158 120.689 24.1816C124.971 24.9484 126.965 26.9496 127.406 31.2971C127.969 36.8062 128.391 42.3269 128.87 47.8437C128.77 47.8552 128.675 47.8628 128.575 47.8743L128.583 47.8705Z" fill="#E0E7FF"/>
<path d="M57.3932 27.5361C57.4123 28.7131 56.7644 29.5527 55.4763 29.8517C53.2948 30.3616 51.1019 30.8102 48.9128 31.2856C48.7288 31.3277 48.5448 31.3776 48.3569 31.4197C42.6446 32.6734 39.3591 36.281 38.1629 41.9243C37.7067 44.0674 37.2351 46.2105 36.7598 48.3497C36.4185 49.8717 35.6518 50.5618 34.379 50.5273C33.1713 50.4966 32.4774 49.818 32.1324 48.3574C31.4883 45.6239 30.8979 42.8712 30.1695 40.1607C28.9925 35.7787 26.1517 32.9839 21.7658 31.8261C19.1435 31.1322 16.4906 30.538 13.8453 29.9284C12.1814 29.545 11.476 28.8626 11.4913 27.5515C11.5067 26.2556 12.2006 25.6077 13.8989 25.2128C16.5442 24.5994 19.1972 24.0129 21.8195 23.3151C26.144 22.165 28.9618 19.397 30.1427 15.0763C30.8826 12.3659 31.4653 9.6132 32.1094 6.87972C32.4774 5.31937 33.1713 4.63312 34.4326 4.62929C35.694 4.62545 36.4185 5.30403 36.7713 6.86438C37.239 8.95762 37.7182 11.047 38.1476 13.1479C39.3744 19.1325 42.9628 22.7094 48.9665 23.8864C51.1173 24.3081 53.2565 24.795 55.3919 25.2895C56.7184 25.5962 57.374 26.3706 57.3932 27.5361ZM34.4403 17.0967C33.4742 19.7612 32.2781 21.8928 30.4954 23.6678C28.7357 25.4275 26.6079 26.6045 23.9626 27.5936C29.2954 29.4453 32.6078 32.8306 34.448 38.079C36.2729 32.7539 39.6734 29.4032 44.9794 27.5591C39.6236 25.7687 36.2882 22.3567 34.4403 17.0929V17.0967Z" fill="#E0E7FF"/>
<path d="M105.657 133.176C104.426 133.199 103.636 132.524 103.31 131.125C102.743 128.667 102.195 126.202 101.623 123.741C101.505 123.231 101.313 122.74 101.156 122.242C99.8983 118.224 97.1878 115.667 93.1815 114.548C90.4327 113.781 87.6263 113.198 84.843 112.546C83.321 112.19 82.6309 111.458 82.6578 110.169C82.6808 108.954 83.3632 108.233 84.8085 107.915C86.9478 107.444 89.087 106.957 91.2339 106.512C97.1571 105.285 100.7 101.708 101.899 95.7813C102.337 93.6344 102.82 91.4951 103.303 89.3559C103.621 87.9412 104.395 87.2664 105.618 87.2741C106.834 87.2818 107.585 87.9642 107.907 89.3942C108.386 91.5334 108.873 93.6727 109.31 95.8196C110.537 101.812 114.156 105.358 120.148 106.535C122.253 106.949 124.339 107.44 126.432 107.915C127.866 108.241 128.544 108.996 128.552 110.208C128.56 111.423 127.877 112.194 126.463 112.531C123.683 113.194 120.881 113.773 118.124 114.517C113.8 115.686 111.02 118.496 109.87 122.821C109.138 125.581 108.551 128.38 107.892 131.159C107.585 132.463 106.811 133.149 105.649 133.172L105.657 133.176ZM105.622 120.39C107.447 115.337 110.909 112.056 116.111 110.196C110.748 108.394 107.443 104.959 105.584 99.7224C103.774 105.063 100.377 108.36 95.1137 110.246C100.454 112.075 103.767 115.46 105.622 120.39Z" fill="#E0E7FF"/>
<path d="M64.0217 121.782C63.37 121.613 62.5189 121.475 61.7215 121.184C40.1948 113.302 25.7951 98.438 18.4151 76.7772C15.8772 69.332 14.4625 61.6414 14.0638 53.786C13.8721 50.0174 13.8261 46.2373 13.8606 42.4649C13.8721 41.2611 14.221 40.0112 14.658 38.8765C15.0721 37.803 16.2797 37.4349 17.3072 37.7953C18.4266 38.1864 19.0055 39.21 18.9135 40.3678C18.7027 43.0706 18.3691 45.7849 18.419 48.4877C18.5646 56.4888 19.5538 64.3902 21.8118 72.0885C28.1452 93.6956 41.6785 108.697 62.8294 116.702C63.8339 117.082 64.7195 117.132 65.7086 116.683C68.2696 115.525 70.865 114.44 73.4413 113.313C74.3346 112.922 75.201 112.865 76.0215 113.451C76.7997 114.011 77.1524 114.843 76.8649 115.713C76.6579 116.33 76.194 117.086 75.6419 117.335C72.3871 118.807 69.0823 120.164 65.7776 121.521C65.3099 121.713 64.7502 121.678 64.0179 121.782H64.0217Z" fill="#E0E7FF"/>
<path d="M5.62947 32.1789C4.86271 38.6694 4.441 44.7728 4.64036 50.903C5.10041 65.088 7.74572 78.7746 14.0369 91.6063C15.3174 94.2171 16.8433 96.709 18.2503 99.2546C19.1205 100.83 18.6298 102.364 17.0925 102.889C15.973 103.269 14.9149 102.855 14.1711 101.448C11.9667 97.2764 9.61277 93.1589 7.74188 88.8383C3.68958 79.4838 1.53499 69.6272 0.561215 59.4907C-0.301386 50.5043 -0.155702 41.5448 0.902421 32.5891C1.13245 30.6607 2.40526 29.5911 3.92727 30.0664C5.06207 30.423 5.67931 31.3584 5.62947 32.1827V32.1789Z" fill="#E0E7FF"/>
<path d="M64.0601 137.907C62.8179 137.573 61.4723 137.27 60.1611 136.852C49.0125 133.291 38.9603 127.759 30.0966 120.099C29.8436 119.88 29.5752 119.669 29.3644 119.413C28.6015 118.489 28.6283 117.277 29.4027 116.407C30.1426 115.575 31.4155 115.406 32.4007 116.039C32.7228 116.242 33.0103 116.503 33.2978 116.752C42.0197 124.216 51.8955 129.561 62.8985 132.804C63.7496 133.053 64.8038 133.053 65.6549 132.804C73.6675 130.419 81.1626 126.911 88.0825 122.2C88.3969 121.985 88.7075 121.759 89.0295 121.556C90.3521 120.743 91.7131 120.942 92.4492 122.046C93.2198 123.2 92.9668 124.535 91.6326 125.382C88.6921 127.249 85.7593 129.147 82.7076 130.818C77.6317 133.598 72.2644 135.718 66.7131 137.347C65.8965 137.585 65.0454 137.7 64.0563 137.903L64.0601 137.907Z" fill="#E0E7FF"/>
<path d="M114.75 47.4373C114.804 57.984 113.09 68.247 109.686 78.2302C109.548 78.6366 109.433 79.0621 109.218 79.4225C108.674 80.3426 107.619 80.7222 106.623 80.4193C105.572 80.0973 104.944 79.2807 105.005 78.1727C105.032 77.659 105.181 77.1376 105.346 76.6469C108.793 66.4107 110.38 55.8908 110.203 45.0987C110.188 44.1441 110.223 43.1665 110.042 42.2387C109.897 41.4834 109.579 40.6975 109.13 40.0726C108.237 38.8266 108.183 37.4771 109.172 36.6069C110.165 35.7289 111.396 35.8248 112.504 36.8676C114.018 38.2937 114.681 40.0994 114.739 42.1313C114.789 43.8987 114.75 45.6699 114.75 47.4373Z" fill="#E0E7FF"/>
<path d="M64.5393 15.9275C65.5093 16.2764 66.8242 16.5064 67.8709 17.162C74.2311 21.1338 80.7907 24.7068 87.68 27.6819C89.1637 28.3221 89.7272 29.6793 89.156 30.9291C88.5848 32.1789 87.2813 32.5546 85.7133 31.8798C79.0003 28.9892 72.5596 25.5809 66.3987 21.6552C65.3597 20.9957 64.4013 20.5472 63.0748 20.9229C61.7483 21.2986 60.6135 20.4782 60.3222 19.2744C60.0346 18.0782 60.6825 16.9319 61.986 16.4911C62.6991 16.2495 63.462 16.1575 64.5355 15.9275H64.5393Z" fill="#E0E7FF"/>
<path d="M100.167 37.3506C98.8785 36.8599 97.2299 36.3653 95.7118 35.6101C94.8032 35.1577 94.5195 34.1571 94.8722 33.1143C95.2249 32.0753 96.0951 31.3431 97.1609 31.5808C98.7289 31.9296 100.278 32.4472 101.754 33.0798C102.712 33.49 103.03 34.6708 102.693 35.6867C102.356 36.7065 101.57 37.1781 100.174 37.3506H100.167Z" fill="#E0E7FF"/>
<path d="M24.2655 113.436C22.801 113.413 19.6151 109.947 19.918 108.517C20.0675 107.815 20.631 107.056 21.2291 106.631C21.9614 106.109 22.9582 106.228 23.6137 106.888C24.5837 107.865 25.5421 108.897 26.2897 110.043C27.2827 111.569 26.0827 113.466 24.2655 113.436Z" fill="#E0E7FF"/>
</svg>
